<svg id="Logo_icon" data-name="Logo icon" xmlns="http://www.w3.org/2000/svg" viewBox="0 0 832.49 1019"><defs><style>.cls-1{font-size:69.83px;font-family:GothamExtraLight, Gotham ExtraLight;letter-spacing:1em;}.cls-1,.cls-2,.cls-3{fill:#0f171f;}.cls-2{font-size:169.38px;font-family:GothamBold, Gotham Bold;}</style></defs><text class="cls-1" transform="translate(114.11 1007.48)">XAVIER</text><text class="cls-2" transform="translate(62.03 926.79)">OTAVIO</text><path class="cls-3" d="M1017.1,489.17c0,148.69-86.51,278.3-214.44,345.64-11.27.74-22.13-3.16-29.51-10.86-13.59-14-13.91-38.78,1.59-55.53,12.72-6.25,155.64-79.46,179.14-242.37,20.74-143.83-67.79-245.29-84.3-263.44-76.51-84.12-172.34-100.92-200.22-105.38-114.44-18.32-201.59,26.17-231.83,42.15-26.7,14.1-74.77,40.17-115.92,94.84-12.05,16-67.24,92.57-63.23,200.22,2.48,66.46,26.46,115.38,42.15,147.53,10.94,22.4,18.83,33.61,94.84,147.53,14.14,21.19,29.57,44.33,42.16,63.22h-.07a.42.42,0,0,1-.15-.09c-34-11.59-107.69-41.94-168.39-115.81-77.87-94.74-83.67-199.06-84.2-237.42,0-2.53-.1-5.06-.1-7.59v-2.63c0-2.64,0-5.8.21-9.28,0-1.58.1-3.26.21-4.95v-.63c.21-3.27.42-7,.74-10.75.1-2.53.42-5.16.63-7.9.42-4.11.84-8.22,1.37-12.33a432.29,432.29,0,0,1,11.8-59.22c.53-1.9,1.06-3.69,1.58-5.59.11-.21.11-.53.21-.74s.21-.52.32-.84C252.59,213.39,412,94,600.86,94,830.8,94,1017.1,270.93,1017.1,489.17Z" transform="translate(-184.62 -94)"/><path class="cls-3" d="M903.66,483.9c-.47,41.91-13.81,100.91-45.38,150.16-3.07,4.79-5.67,8.54-7.52,11.17A296,296,0,0,1,746,736.81c-22.34,7.79-45.52-2.85-52.69-21.08-5.37-13.7-1.16-30.45,10.54-42.15C777.1,632.17,823.78,559.77,823.25,483.9c-.84-115.6-111.06-210.44-224.77-210.76-90.31-.21-166.92,59.23-200.22,126.46-6.53,13.27-28.45,59-21.07,115.91,1.58,12.23,5.37,31.3,31.61,84.31,9.8,19.91,24.66,48,73.77,126.45,35,55.74,52.16,80.72,84.09,135.51,5,8.44,9.27,16,12.85,22.34a433.79,433.79,0,0,1-90.73-12.32l-47-73.14c-14.55-22-35.31-54.16-58.91-94-47.53-80-71.24-119.92-79.46-157.54C283.42,455.58,325,375.77,335,357.45c63.23-115.36,181.33-143.39,200.22-147.53,17.89-3.93,127.3-26,231.83,42.15C842.71,301.41,904.71,390.81,903.66,483.9Z" transform="translate(-184.62 -94)"/><path class="cls-3" d="M664.2,557.66c27.3-24.55,39.52-60.91,31.62-94.84-10.23-44-52.06-74.29-95.9-73.76-47.44.57-82.44,36.46-93.78,73.76-12.67,41.63,6.5,77.19,10.53,84.31,38.68,53.11,62.6,90.2,77.35,114.54,2.53,4.22,11.28,18.55,19.71,32.67,14,23.39,28,46.68,42.15,70.08,24.23,40.14,25.5,41.3,33.19,55.11,10.86,19.39,19.18,36.14,25.19,48.47a426.44,426.44,0,0,1-82.62,14.86,1297.11,1297.11,0,0,0-72.82-135.52c-79.73-129.16-141.53-177.8-137-263.44a173.34,173.34,0,0,1,21.08-73.77c28.65-51.84,89.19-95.57,158.38-94.84,92.17,1,179.74,80.65,178.83,173.25-.84,85.67-76.51,137.73-84.3,142.89-16.13,4-32.78.21-42.16-10.54C640.07,605.29,642.28,575.79,664.2,557.66Z" transform="translate(-184.62 -94)"/></svg>