<svg id="Logo_icon" data-name="Logo icon" xmlns="http://www.w3.org/2000/svg" viewBox="0 0 1055.72 1002"><defs><style>.cls-1{fill:#0f171f;}</style></defs><path class="cls-1" d="M1128.34,600.26c0,188.56-109.72,352.93-271.95,438.32-14.3.94-28.06-4-37.42-13.76-17.24-17.77-17.64-49.18,2-70.43,16.14-7.92,197.38-100.77,227.18-307.36,26.31-182.4-86-311.07-106.91-334.09-97-106.66-218.55-128-253.91-133.63-145.13-23.23-255.64,33.19-294,53.45-33.85,17.88-94.81,50.94-147,120.27-15.28,20.31-85.27,117.4-80.18,253.91,3.14,84.28,33.55,146.33,53.46,187.09,13.87,28.41,23.87,42.63,120.27,187.09,17.93,26.87,37.5,56.22,53.45,80.18h-.08a.56.56,0,0,1-.18-.12C349.91,1046.47,256.5,1008,179.53,914.3,80.77,794.16,73.42,661.86,72.75,613.22c0-3.21-.13-6.41-.13-9.62v-3.34c0-3.34,0-7.35.27-11.76,0-2,.13-4.14.26-6.28v-.8c.27-4.15.54-8.82.94-13.63.13-3.21.53-6.55.8-10,.53-5.21,1.07-10.42,1.74-15.63a550,550,0,0,1,15-75.11c.67-2.4,1.34-4.67,2-7.08.13-.27.13-.67.27-.93s.26-.67.4-1.07C158.81,250.53,361,99.12,600.48,99.12,892.07,99.12,1128.34,323.5,1128.34,600.26Z" transform="translate(-72.62 -99.13)"/><path class="cls-1" d="M984.47,593.58c-.6,53.15-17.51,128-57.55,190.43-3.88,6.06-7.18,10.82-9.53,14.16C871.28,863.79,814.89,898.4,784.55,914.3c-28.33,9.89-57.73-3.61-66.82-26.72-6.81-17.38-1.47-38.63,13.37-53.46C824,781.6,883.17,689.79,882.51,593.58c-1.07-146.6-140.86-266.87-285-267.27-114.52-.27-211.68,75.1-253.91,160.36-8.28,16.84-36.08,74.83-26.72,147,2,15.5,6.81,39.69,40.09,106.91,12.43,25.25,31.27,60.93,93.54,160.36,44.37,70.69,66.15,102.36,106.64,171.85,6.28,10.69,11.76,20.32,16.31,28.33a549.8,549.8,0,0,1-115.06-15.63l-59.6-92.74C380.3,964.82,354,924.06,324,873.54c-60.27-101.43-90.33-152.07-100.76-199.78-25.36-116.09,27.35-217.3,40.09-240.55,80.2-146.29,230-181.83,253.91-187.09,22.69-5,161.44-33,294,53.46C907.18,362.15,985.8,475.52,984.47,593.58Z" transform="translate(-72.62 -99.13)"/><path class="cls-1" d="M680.8,687.12c34.62-31.14,50.12-77.24,40.1-120.27-13-55.86-66-94.21-121.61-93.55-60.16.73-104.55,46.25-118.94,93.55-16.06,52.79,8.25,97.88,13.36,106.91C542.76,741.11,573.09,788.15,591.8,819c3.21,5.35,14.3,23.52,25,41.43,17.78,29.66,35.55,59.2,53.46,88.87,30.73,50.91,32.34,52.38,42.09,69.89,13.77,24.59,24.32,45.83,31.94,61.47a540.8,540.8,0,0,1-104.77,18.84,1647.77,1647.77,0,0,0-92.34-171.85C446.06,763.86,367.68,702.18,373.44,593.58A219.76,219.76,0,0,1,400.17,500C436.51,434.29,513.28,378.83,601,379.76,717.91,381,829,482,827.8,599.46c-1.07,108.64-97,174.66-106.9,181.21-20.45,5.08-41.56.26-53.46-13.37C650.2,747.52,653,710.11,680.8,687.12Z" transform="translate(-72.62 -99.13)"/></svg>